<svg width="30" height="24" viewBox="0 0 30 24" fill="none" xmlns="http://www.w3.org/2000/svg">
<path d="M24.2308 0H5.76923C4.23914 0 2.77171 0.486262 1.68977 1.35181C0.607828 2.21737 0 3.39131 0 4.61538V19.3846C0 20.6087 0.607828 21.7826 1.68977 22.6482C2.77171 23.5137 4.23914 24 5.76923 24H15C15.306 24 15.5995 23.9027 15.8159 23.7296C16.0323 23.5565 16.1538 23.3217 16.1538 23.0769V15.6923C16.1538 15.4475 16.0323 15.2127 15.8159 15.0396C15.5995 14.8665 15.306 14.7692 15 14.7692H13.8462V12.9231H15C15.306 12.9231 15.5995 12.8258 15.8159 12.6527C16.0323 12.4796 16.1538 12.2448 16.1538 12V8.76923C16.1538 8.15719 16.4578 7.57022 16.9987 7.13745C17.5397 6.70467 18.2734 6.46154 19.0385 6.46154H21.9231V8.30769H20.7692C20.1572 8.30769 19.5702 8.5022 19.1374 8.84842C18.7047 9.19464 18.4615 9.66422 18.4615 10.1538V12C18.4615 12.2448 18.5831 12.4796 18.7995 12.6527C19.0159 12.8258 19.3094 12.9231 19.6154 12.9231H21.6L21.0231 14.7692H19.6154C19.3094 14.7692 19.0159 14.8665 18.7995 15.0396C18.5831 15.2127 18.4615 15.4475 18.4615 15.6923V19.3846C18.4615 19.6294 18.5831 19.8642 18.7995 20.0373C19.0159 20.2104 19.3094 20.3077 19.6154 20.3077C19.9214 20.3077 20.2149 20.2104 20.4313 20.0373C20.6477 19.8642 20.7692 19.6294 20.7692 19.3846V16.6154H21.9231C22.1867 16.6215 22.4449 16.5553 22.6549 16.4276C22.8648 16.3 23.0137 16.1187 23.0769 15.9138L24.2308 12.2215C24.274 12.0853 24.2777 11.943 24.2417 11.8054C24.2058 11.6678 24.131 11.5386 24.0231 11.4277C23.9109 11.3139 23.7667 11.2229 23.6024 11.1619C23.438 11.101 23.258 11.0719 23.0769 11.0769H20.7692V10.1538H23.0769C23.3829 10.1538 23.6764 10.0566 23.8928 9.88348C24.1092 9.71037 24.2308 9.47558 24.2308 9.23077V5.53846C24.2308 5.29365 24.1092 5.05886 23.8928 4.88575C23.6764 4.71264 23.3829 4.61538 23.0769 4.61538H19.0385C17.6623 4.61782 16.3434 5.05624 15.3703 5.83471C14.3972 6.61318 13.8492 7.66831 13.8462 8.76923V11.0769H12.6923C12.3863 11.0769 12.0928 11.1742 11.8764 11.3473C11.66 11.5204 11.5385 11.7552 11.5385 12V15.6923C11.5385 15.9371 11.66 16.1719 11.8764 16.345C12.0928 16.5181 12.3863 16.6154 12.6923 16.6154H13.8462V22.1538H5.76923C4.85117 22.1538 3.97072 21.8621 3.32155 21.3428C2.67239 20.8234 2.30769 20.1191 2.30769 19.3846V4.61538C2.30769 3.88094 2.67239 3.17657 3.32155 2.65724C3.97072 2.13791 4.85117 1.84615 5.76923 1.84615H24.2308C25.1488 1.84615 26.0293 2.13791 26.6784 2.65724C27.3276 3.17657 27.6923 3.88094 27.6923 4.61538V19.3846C27.6923 20.1191 27.3276 20.8234 26.6784 21.3428C26.0293 21.8621 25.1488 22.1538 24.2308 22.1538H19.6154C19.3094 22.1538 19.0159 22.2511 18.7995 22.4242C18.5831 22.5973 18.4615 22.8321 18.4615 23.0769C18.4615 23.3217 18.5831 23.5565 18.7995 23.7296C19.0159 23.9027 19.3094 24 19.6154 24H24.2308C25.7609 24 27.2283 23.5137 28.3102 22.6482C29.3922 21.7826 30 20.6087 30 19.3846V4.61538C30 3.39131 29.3922 2.21737 28.3102 1.35181C27.2283 0.486262 25.7609 0 24.2308 0Z" fill="white"/>
</svg>
