<svg width="70" height="49" viewBox="0 0 70 49" fill="none" xmlns="http://www.w3.org/2000/svg">
<path d="M69.6066 36.4971C69.173 36.1388 68.5591 36.2371 68.2354 36.7169L65.3536 40.9875L54.5004 19.577C54.3939 19.3666 54.227 19.2018 54.0262 19.1081L26.3414 6.20805L28.8401 1.64679C29.1207 1.13471 28.9729 0.468089 28.5103 0.157591C28.0479 -0.152907 27.4452 0.0106148 27.1647 0.522543L25.0022 4.46971L23.2621 0.601252C23.0211 0.0653894 22.4328 -0.153228 21.9483 0.114061C21.464 0.380868 21.2667 1.0319 21.5081 1.56792L23.8004 6.66376L23.5775 7.0708L17.3856 18.2062L4.68526 41.0451L1.76473 36.7169C1.4412 36.2372 0.82722 36.1384 0.393517 36.4971C-0.0398958 36.8553 -0.129017 37.5348 0.194809 38.0146L3.97853 43.6217C3.97868 43.6219 3.97882 43.6219 3.97882 43.622C4.01177 43.6709 4.04893 43.7149 4.08841 43.7563C4.08856 43.7565 4.0887 43.7567 4.08885 43.7568C4.10989 43.779 4.13094 43.8005 4.15329 43.8204C4.17419 43.8389 4.1964 43.855 4.21846 43.8712C4.23051 43.8803 4.24212 43.89 4.25446 43.8983C4.25461 43.8983 4.25461 43.8983 4.25461 43.8985C4.33734 43.9541 4.42719 43.996 4.52211 44.0225V44.0227C4.5404 44.0276 4.55884 44.0313 4.57727 44.035C4.63809 44.048 4.70007 44.0572 4.7635 44.0572H10.8896H36.588H42.0553H65.2365C65.2381 44.0572 65.2395 44.0569 65.2413 44.0569C65.2445 44.0567 65.2478 44.0561 65.251 44.0561C65.3012 44.0553 65.3507 44.0493 65.3993 44.0402C65.4247 44.0355 65.45 44.0302 65.4748 44.0235C65.475 44.0235 65.475 44.0235 65.475 44.0235C65.6886 43.964 65.8791 43.8267 66.0143 43.6312C66.0167 43.6278 66.0191 43.6251 66.0214 43.6217L69.805 38.0146C70.129 37.5348 70.04 36.8555 69.6066 36.4971ZM36.9117 41.8887C27.6489 34.1824 25.1443 20.7478 25.12 20.6124C25.0307 20.1114 24.6376 19.7471 24.1762 19.7384C23.72 19.727 23.3103 20.0773 23.205 20.5748C20.771 32.0658 12.1369 40.4253 10.5423 41.8887H6.51703L24.852 8.91596L40.4372 41.8887H36.9117ZM44.0097 41.8887L46.624 38.0146C46.9477 37.5348 46.8588 36.8553 46.4254 36.4971C45.9918 36.1388 45.3779 36.2371 45.0542 36.7169L42.202 40.9435L27.0523 8.89234L52.9558 20.9624L63.5635 41.8887H44.0097Z" fill="black"/>
<path d="M24.2865 46.4637H10.9712C10.4299 46.4637 9.99145 46.949 9.99145 47.548C9.99145 48.147 10.4299 48.6323 10.9712 48.6323H24.2865C24.8278 48.6323 25.2663 48.147 25.2663 47.548C25.2663 46.949 24.8278 46.4637 24.2865 46.4637Z" fill="black"/>
<path d="M30.5571 46.4637H28.4016C27.8604 46.4637 27.4219 46.949 27.4219 47.548C27.4219 48.147 27.8604 48.6323 28.4016 48.6323H30.5571C31.0983 48.6323 31.5368 48.147 31.5368 47.548C31.5368 46.949 31.0982 46.4637 30.5571 46.4637Z" fill="black"/>
<path d="M42.5099 46.4637H34.4759C33.9347 46.4637 33.4962 46.949 33.4962 47.548C33.4962 48.147 33.9347 48.6323 34.4759 48.6323H42.5099C43.0511 48.6323 43.4896 48.147 43.4896 47.548C43.4896 46.949 43.0511 46.4637 42.5099 46.4637Z" fill="black"/>
<path d="M39.7602 9.63962L41.7506 10.5546C41.8736 10.6113 42.0009 10.6379 42.1261 10.6379C42.5102 10.6379 42.8746 10.3864 43.0313 9.96939C43.2388 9.41651 43.0019 8.78169 42.5022 8.55231L40.5118 7.6372C40.0123 7.4075 39.4387 7.66965 39.2311 8.2227C39.0237 8.77543 39.2606 9.41008 39.7602 9.63962Z" fill="black"/>
<path d="M45.3697 12.2183L52.7893 15.6288C52.9121 15.6854 53.0394 15.712 53.1648 15.712C53.5489 15.712 53.9132 15.4605 54.0698 15.0435C54.2775 14.4906 54.0405 13.8558 53.5409 13.6264L46.1213 10.2159C45.6223 9.9859 45.0484 10.2484 44.8408 10.8014C44.6333 11.354 44.8701 11.9886 45.3697 12.2183Z" fill="black"/>
</svg>
