<svg width="30" height="23" viewBox="0 0 30 23" fill="none" xmlns="http://www.w3.org/2000/svg">
<path d="M14.7857 5.51831C10.6123 5.51831 7.15436 8.16146 7.15436 11.4538C7.15436 14.7461 10.5527 17.3893 14.7857 17.3893C19.0187 17.3893 22.417 14.6998 22.417 11.4538C22.417 8.20783 18.9591 5.51831 14.7857 5.51831ZM14.7857 15.2562C12.1028 15.2562 9.89687 13.5405 9.89687 11.4538C9.89687 9.3671 12.1028 7.65137 14.7857 7.65137C17.4686 7.65137 19.6745 9.3671 19.6745 11.4538C19.6745 13.5405 17.4686 15.2562 14.7857 15.2562Z" fill="white"/>
<path d="M22.7152 6.72394C23.6701 6.72394 24.4442 6.12187 24.4442 5.37918C24.4442 4.63649 23.6701 4.03442 22.7152 4.03442C21.7603 4.03442 20.9862 4.63649 20.9862 5.37918C20.9862 6.12187 21.7603 6.72394 22.7152 6.72394Z" fill="white"/>
<path d="M27.1866 1.90121C25.6365 0.649193 23.4306 0 20.9266 0H8.64487C3.45795 0 0 2.68952 0 6.72379V16.2298C0 18.2238 0.834677 19.9395 2.50403 21.1915C4.11377 22.3972 6.26008 23 8.70449 23H20.8669C23.4306 23 25.5769 22.3508 27.127 21.1915C28.7368 19.9859 29.5714 18.2702 29.5714 16.2762V6.72379C29.5714 4.77621 28.7367 3.10685 27.1866 1.90121ZM26.9482 16.2762C26.9482 17.7137 26.2923 18.873 25.2192 19.6613C24.146 20.4496 22.6555 20.8669 20.8669 20.8669H8.70449C6.9159 20.8669 5.4254 20.4496 4.35225 19.6613C3.27909 18.8266 2.74251 17.6673 2.74251 16.2298V6.72379C2.74251 5.33266 3.27909 4.17339 4.35225 3.33871C5.36578 2.5504 6.9159 2.13306 8.70449 2.13306H20.9862C22.7748 2.13306 24.2653 2.5504 25.3384 3.38508C26.352 4.21976 26.9482 5.37903 26.9482 6.72379V16.2762Z" fill="white"/>
</svg>
