<svg width="26" height="19" viewBox="0 0 26 19" fill="none" xmlns="http://www.w3.org/2000/svg">
<path d="M25 6.5C24.7348 6.5 24.4804 6.60536 24.2929 6.79289C24.1054 6.98043 24 7.23478 24 7.5V15.5C24 15.7652 23.8946 16.0196 23.7071 16.2071C23.5196 16.3946 23.2652 16.5 23 16.5H3C2.73478 16.5 2.48043 16.3946 2.29289 16.2071C2.10536 16.0196 2 15.7652 2 15.5V7.5C2 7.23478 1.89464 6.98043 1.70711 6.79289C1.51957 6.60536 1.26522 6.5 1 6.5C0.734784 6.5 0.48043 6.60536 0.292893 6.79289C0.105357 6.98043 0 7.23478 0 7.5V15.5C0.000700208 16.2954 0.31723 17.0579 0.88 17.62C1.44207 18.1828 2.20462 18.4993 3 18.5H23C23.7954 18.4993 24.5579 18.1828 25.12 17.62C25.6828 17.0579 25.9993 16.2954 26 15.5V7.5C26 7.23478 25.8946 6.98043 25.7071 6.79289C25.5196 6.60536 25.2652 6.5 25 6.5Z" fill="white"/>
<path d="M12.4 12.3C12.5731 12.4298 12.7836 12.5 13 12.5C13.2164 12.5 13.4269 12.4298 13.6 12.3L25.41 3.44C25.5942 3.30107 25.7248 3.1027 25.7794 2.87852C25.8341 2.65434 25.8096 2.41815 25.71 2.21C25.5611 1.90232 25.3616 1.62177 25.12 1.38C24.5579 0.81723 23.7954 0.5007 23 0.5H3C2.20462 0.5007 1.44207 0.81723 0.880001 1.38C0.638356 1.62177 0.438928 1.90232 0.290001 2.21C0.190417 2.41815 0.165885 2.65434 0.220562 2.87852C0.27524 3.1027 0.405762 3.30107 0.590001 3.44L12.4 12.3ZM3 2.5H23C23.0928 2.48539 23.1872 2.48539 23.28 2.5L13 10.25L2.72 2.5C2.81276 2.48539 2.90724 2.48539 3 2.5Z" fill="white"/>
</svg>
