<svg width="31" height="26" viewBox="0 0 31 26" fill="none" xmlns="http://www.w3.org/2000/svg">
<path fill-rule="evenodd" clip-rule="evenodd" d="M26.7263 0H4.41635C2.30379 0 0.571411 1.44735 0.571411 3.21233V21.8509C0.571411 23.616 2.30379 25.0633 4.41635 25.0633H26.7263C28.839 25.0633 30.5714 23.616 30.5714 21.851V3.21233C30.5714 1.44735 28.839 0 26.7263 0ZM23.3197 11.6589C22.5747 14.3882 20.2792 16.2577 17.1666 16.2577C15.8837 16.2577 14.6761 15.6963 14.2628 15.0599C14.2628 15.0599 13.5743 17.2722 13.4281 17.7002C12.9128 19.2102 11.3999 20.7217 11.282 20.8444C11.1997 20.9307 11.0181 20.9042 10.9988 20.7893C10.9662 20.5982 10.5812 18.6923 11.0347 17.138C11.2623 16.3571 12.5641 11.9031 12.5641 11.9031C12.5641 11.9031 12.3762 11.5964 12.2648 11.0994C12.217 10.8908 12.1825 10.6492 12.1825 10.3806C12.1825 8.95668 13.2057 7.89473 14.4776 7.89473C15.5568 7.89473 16.0791 8.55097 16.0791 9.33733C16.0791 9.79635 15.8903 10.376 15.6579 10.999C15.4463 11.5645 15.2008 12.166 15.0295 12.7464C14.7309 13.7662 15.6627 14.5973 16.9073 14.5973C18.6528 14.5973 19.9571 13.1885 20.4545 11.2616C20.5967 10.7059 20.673 10.1077 20.673 9.4874C20.673 7.38265 18.9201 5.80586 15.7284 5.80586C12.125 5.80586 9.87647 7.98 9.87647 10.4083C9.87647 10.7426 9.9261 11.0365 10.0158 11.2995C10.1505 11.695 10.3732 12.0188 10.6622 12.2927C10.8826 12.5027 10.9112 12.5861 10.8325 12.827C10.7736 13.0065 10.6448 13.4307 10.5897 13.5994C10.511 13.8447 10.2687 13.9298 9.9941 13.8411C8.84241 13.4592 8.11622 12.6325 7.78185 11.6094C7.63429 11.1603 7.56129 10.6737 7.56129 10.1691C7.56129 7.4403 10.409 4.16766 16.054 4.16667C20.5922 4.16667 23.5805 6.82056 23.5805 9.67067C23.5803 10.3699 23.4903 11.0366 23.3197 11.6589Z" fill="white"/>
</svg>
